<svg xmlns="http://www.w3.org/2000/svg" xmlns:xlink="http://www.w3.org/1999/xlink" width="324" zoomAndPan="magnify" viewBox="0 0 242.87999 187.499995" height="250" preserveAspectRatio="xMidYMid meet" version="1.0"><defs><clipPath id="da9482a4ff"><path d="M 0.261719 0 L 242.496094 0 L 242.496094 187 L 0.261719 187 Z M 0.261719 0 " clip-rule="nonzero"/></clipPath><clipPath id="82713819c3"><path d="M 0.261719 157.175781 L 23.699219 157.175781 L 23.699219 177.394531 L 0.261719 177.394531 Z M 0.261719 157.175781 " clip-rule="nonzero"/></clipPath><clipPath id="a1df190eea"><path d="M 23.285156 168.28125 L 15.441406 157.992188 C 14.976562 157.382812 14.191406 157.117188 13.453125 157.320312 L 1.640625 160.578125 C 0.496094 160.898438 -0.0703125 162.1875 0.46875 163.25 L 7.125 176.292969 C 7.582031 177.191406 8.667969 177.566406 9.582031 177.144531 L 22.582031 171.128906 C 23.671875 170.625 24.015625 169.238281 23.285156 168.28125 Z M 23.285156 168.28125 " clip-rule="nonzero"/></clipPath><clipPath id="e039edf66a"><path d="M 0.261719 0.175781 L 23.699219 0.175781 L 23.699219 20.367188 L 0.261719 20.367188 Z M 0.261719 0.175781 " clip-rule="nonzero"/></clipPath><clipPath id="94808b9a89"><path d="M 23.285156 11.28125 L 15.441406 0.992188 C 14.976562 0.382812 14.191406 0.117188 13.453125 0.320312 L 1.640625 3.578125 C 0.496094 3.898438 -0.0703125 5.1875 0.46875 6.25 L 7.125 19.292969 C 7.582031 20.191406 8.667969 20.566406 9.582031 20.144531 L 22.582031 14.128906 C 23.671875 13.625 24.015625 12.238281 23.285156 11.28125 Z M 23.285156 11.28125 " clip-rule="nonzero"/></clipPath><clipPath id="d5c63f0b2c"><rect x="0" width="24" y="0" height="21"/></clipPath><clipPath id="6acd9b9042"><path d="M 24.085938 0 L 242.496094 0 L 242.496094 187 L 24.085938 187 Z M 24.085938 0 " clip-rule="nonzero"/></clipPath></defs><g clip-path="url(#82713819c3)"><g clip-path="url(#a1df190eea)"><g transform="matrix(1, 0, 0, 1, 0.000000000000000056, 157)"><g clip-path="url(#d5c63f0b2c)"><g clip-path="url(#e039edf66a)"><g clip-path="url(#94808b9a89)"><path fill="#ffffff" d="M 0.261719 0.253906 L 23.699219 0.253906 L 23.699219 20.316406 L 0.261719 20.316406 Z M 0.261719 0.253906 " fill-opacity="1" fill-rule="nonzero"/></g></g></g></g></g></g><g clip-path="url(#6acd9b9042)"><path fill="#ffffff" d="M 219.117188 35.9375 L 205.292969 114.824219 C 204.988281 116.585938 203.578125 117.949219 201.8125 118.203125 L 103.542969 132.25 C 102.148438 132.449219 100.972656 131.230469 101.214844 129.84375 L 120.882812 18.578125 C 121.230469 16.605469 122.945312 15.164062 124.949219 15.164062 L 220.296875 15.179688 C 221.582031 15.179688 222.554688 16.339844 222.332031 17.605469 Z M 97.367188 136.988281 L 93.035156 161.359375 C 92.714844 162.703125 91.390625 163.6875 90.046875 163.578125 L 61.503906 161.378906 C 59.972656 161.253906 59.101562 159.777344 59.675781 158.285156 L 67.960938 136.902344 C 68.375 135.835938 69.429688 135.078125 70.550781 135.042969 L 95.144531 134.25 C 96.675781 134.203125 97.722656 135.492188 97.367188 136.988281 M 56.144531 164.894531 L 47.449219 177.648438 C 46.761719 178.660156 45.496094 179.078125 44.503906 178.621094 L 30.71875 172.277344 C 29.441406 171.691406 29.113281 170.019531 30.074219 168.992188 L 39.410156 158.976562 C 40.039062 158.300781 40.957031 158 41.769531 158.203125 L 55.132812 161.558594 C 56.539062 161.914062 57.042969 163.578125 56.144531 164.894531 M 240.839844 0.00390625 L 58.101562 0.00390625 C 57.300781 0.00390625 56.617188 0.578125 56.476562 1.367188 L 24.113281 184.757812 C 23.933594 185.769531 24.710938 186.695312 25.738281 186.695312 L 208.503906 186.695312 C 209.300781 186.695312 209.988281 186.121094 210.125 185.332031 L 242.464844 1.941406 C 242.644531 0.929688 241.867188 0.00390625 240.839844 0.00390625 " fill-opacity="1" fill-rule="nonzero"/></g></svg>