<svg xmlns="http://www.w3.org/2000/svg" width="1435" height="395" viewBox="0 0 1435 395" version="1.1">
	<path d="M 101.768 31.241 C 99.016 33.354, 95.921 43.955, 94.948 54.599 C 94.440 60.154, 93.292 66.449, 92.398 68.589 C 91.504 70.729, 90.424 76.552, 89.997 81.529 C 89.571 86.507, 88.522 92.640, 87.667 95.159 C 86.812 97.678, 85.589 104.603, 84.949 110.549 C 84.308 116.494, 83.125 123.190, 82.319 125.429 C 81.513 127.668, 80.446 133.688, 79.947 138.807 C 79.449 143.926, 78.339 150.182, 77.481 152.709 C 76.622 155.236, 75.475 162.010, 74.930 167.761 C 74.385 173.512, 73.325 179.406, 72.575 180.859 C 71.825 182.311, 70.669 188.675, 70.006 195 C 69.343 201.325, 68.150 208.067, 67.354 209.981 C 66.559 211.896, 65.496 217.746, 64.992 222.981 C 64.488 228.217, 63.380 234.750, 62.530 237.500 C 61.679 240.250, 60.522 246.874, 59.958 252.221 C 59.394 257.567, 58.253 263.865, 57.424 266.216 C 56.594 268.567, 55.456 275.218, 54.895 280.995 C 54.334 286.773, 53.003 293.879, 51.937 296.788 C 50.872 299.696, 50 304.296, 50 307.010 C 50 309.724, 48.858 316.344, 47.463 321.722 C 46.067 327.100, 44.769 334.875, 44.577 339 C 44.386 343.125, 43.503 348.469, 42.615 350.876 C 40.488 356.639, 40.576 360.255, 42.912 363.139 L 44.823 365.500 207.884 365.500 L 370.944 365.500 373.069 363.375 C 374.691 361.754, 375.412 359.266, 376.116 352.875 C 376.623 348.269, 377.699 342.475, 378.506 340 C 379.313 337.525, 380.477 330.775, 381.093 325 C 381.709 319.225, 382.827 313.013, 383.578 311.196 C 384.329 309.379, 385.423 303.176, 386.009 297.411 C 386.596 291.646, 387.458 285.932, 387.925 284.714 C 389.350 281.001, 390.836 272.887, 391.502 265.186 C 391.849 261.164, 392.812 255.989, 393.641 253.686 C 394.469 251.384, 395.577 245.066, 396.102 239.647 C 396.626 234.227, 397.704 228.539, 398.497 227.005 C 399.290 225.472, 400.394 219.417, 400.950 213.550 C 401.506 207.683, 402.662 200.816, 403.520 198.290 C 404.378 195.763, 405.525 188.990, 406.070 183.239 C 406.615 177.488, 407.741 171.468, 408.572 169.861 C 409.403 168.254, 410.490 162.340, 410.989 156.720 C 411.487 151.099, 412.608 144.488, 413.481 142.029 C 414.353 139.570, 415.528 133.069, 416.091 127.581 C 416.654 122.094, 417.950 114.431, 418.971 110.552 C 419.991 106.673, 421.116 99.941, 421.469 95.592 C 421.823 91.243, 422.781 86.391, 423.598 84.811 C 424.415 83.230, 425.511 77.065, 426.034 71.110 C 426.556 65.155, 427.704 58.560, 428.583 56.455 C 430.917 50.869, 431.638 35.087, 429.678 32.500 C 428.174 30.516, 426.836 30.498, 265.784 30.241 C 136.487 30.035, 103.073 30.239, 101.768 31.241 M 219.675 63.981 C 216.840 66.470, 216.173 67.870, 215.633 72.467 C 215.277 75.494, 214.339 79.891, 213.547 82.236 C 212.756 84.581, 211.639 91.116, 211.064 96.758 C 210.490 102.400, 209.314 108.700, 208.451 110.758 C 207.588 112.816, 206.489 118.775, 206.008 124 C 205.528 129.225, 204.457 135.750, 203.627 138.500 C 202.798 141.250, 201.638 147.914, 201.049 153.308 C 200.460 158.703, 199.312 164.711, 198.498 166.660 C 197.683 168.609, 196.596 174.545, 196.082 179.852 C 195.568 185.158, 194.443 191.458, 193.582 193.852 C 192.721 196.245, 191.589 202.545, 191.065 207.852 C 190.542 213.158, 189.379 220.200, 188.480 223.500 C 187.582 226.800, 186.445 233.645, 185.953 238.712 C 185.461 243.778, 184.370 249.571, 183.529 251.584 C 182.688 253.597, 182 257.194, 182 259.577 C 182 263.674, 182.177 263.942, 185.250 264.516 C 188.571 265.137, 198.720 263.841, 205 261.994 C 206.925 261.428, 214.125 260.511, 221 259.957 C 227.875 259.403, 235.792 258.294, 238.592 257.493 C 241.393 256.691, 249.023 255.568, 255.547 254.996 C 262.071 254.424, 269.680 253.278, 272.455 252.449 C 275.230 251.621, 283.350 250.490, 290.500 249.937 C 297.650 249.384, 304.625 248.534, 306 248.047 C 310.317 246.520, 313.551 246.018, 325.695 244.993 C 332.188 244.445, 340.875 243.105, 345 242.015 C 349.125 240.926, 353.883 240.027, 355.572 240.017 C 358.032 240.003, 359.154 239.222, 361.198 236.100 C 363.298 232.893, 363.968 230.100, 364.971 220.365 C 365.643 213.856, 366.844 207.269, 367.641 205.727 C 368.438 204.185, 369.482 198.553, 369.961 193.212 C 370.440 187.870, 371.488 181.925, 372.290 180 C 373.093 178.075, 374.238 171.225, 374.835 164.778 C 375.432 158.330, 376.599 151.742, 377.430 150.136 C 378.260 148.531, 379.385 142.556, 379.931 136.859 C 380.476 131.161, 381.618 124.250, 382.468 121.500 C 383.318 118.750, 384.422 112.671, 384.921 107.991 C 385.420 103.311, 386.723 95.661, 387.815 90.991 C 390.364 80.094, 391.525 64.337, 389.921 62.404 C 388.937 61.219, 375.825 61, 305.912 61 L 223.070 61 219.675 63.981 M 1196.173 111.750 C 1195.314 113.423, 1193.770 125.305, 1193.866 129.500 C 1193.891 130.600, 1194.165 132.512, 1194.475 133.750 C 1195.026 135.953, 1195.340 136, 1209.397 136 C 1219.683 136, 1224.039 135.645, 1224.757 134.750 C 1225.308 134.063, 1226.929 128.810, 1228.359 123.078 C 1230.288 115.345, 1230.674 112.313, 1229.857 111.328 C 1229.026 110.326, 1224.860 110, 1212.913 110 C 1198.833 110, 1196.970 110.195, 1196.173 111.750 M 531.500 112.603 C 528.750 113.387, 523.125 113.979, 519 113.920 C 514.875 113.861, 508.251 114.140, 504.281 114.539 C 497.210 115.249, 496.989 115.357, 493.531 119.796 C 490.939 123.123, 490 125.315, 490 128.037 C 490 130.078, 489.080 135.291, 487.957 139.623 C 486.833 143.956, 485.533 151.568, 485.068 156.540 C 484.603 161.512, 483.541 167.587, 482.708 170.040 C 481.875 172.493, 480.670 179, 480.030 184.500 C 479.389 190, 478.196 196.750, 477.378 199.500 C 476.559 202.250, 475.497 208.171, 475.016 212.658 C 474.535 217.144, 473.485 222.769, 472.683 225.158 C 470.849 230.613, 468.592 250.237, 469.419 253.532 L 470.038 256 484.960 256 C 494.164 256, 500.127 255.603, 500.522 254.965 C 502.187 252.271, 505.132 239.583, 505.997 231.379 C 506.821 223.562, 508.469 215.400, 510.541 208.870 C 511.328 206.392, 513.140 206.030, 519.954 206.994 C 527.498 208.060, 551.150 205.787, 554.353 203.688 C 555.550 202.904, 558.098 201.930, 560.015 201.524 C 569.731 199.467, 584.665 184.488, 586.394 175.066 C 586.740 173.177, 587.794 170.780, 588.735 169.741 C 590.174 168.150, 590.445 165.682, 590.440 154.175 C 590.435 141.052, 590.319 140.280, 587.561 135.044 C 584.781 129.766, 575.756 120, 573.658 120 C 573.092 120, 571.630 119.062, 570.409 117.915 C 568.754 116.360, 565.615 115.469, 558.078 114.416 C 552.518 113.639, 546.062 112.563, 543.734 112.026 C 538.459 110.809, 537.668 110.846, 531.500 112.603 M 1067.608 116.880 C 1066.405 118.210, 1065.602 121.558, 1065.024 127.655 C 1064.564 132.520, 1063.293 140.100, 1062.200 144.500 C 1061.107 148.900, 1059.942 155.701, 1059.612 159.614 C 1059.282 163.527, 1058.352 168.306, 1057.546 170.235 C 1056.741 172.163, 1055.575 178.861, 1054.955 185.120 C 1054.335 191.379, 1052.967 199.073, 1051.914 202.218 C 1050.861 205.364, 1050 210.410, 1050 213.434 C 1050 216.457, 1049.363 220.858, 1048.585 223.215 C 1046.355 229.969, 1045.107 237.798, 1044.791 247 L 1044.500 255.500 1059.716 255.776 L 1074.933 256.052 1076.830 252.276 C 1078.753 248.450, 1080.430 240.270, 1081.466 229.676 C 1081.779 226.473, 1082.736 222.198, 1083.593 220.176 C 1084.450 218.154, 1085.407 212.373, 1085.718 207.329 C 1086.227 199.084, 1087.213 194.725, 1088.275 196.029 C 1089.434 197.454, 1095 210.094, 1095 211.302 C 1095 212.088, 1095.857 213.819, 1096.904 215.150 C 1097.951 216.481, 1099.347 219.575, 1100.007 222.026 C 1100.667 224.477, 1102.004 227.611, 1102.979 228.991 C 1103.954 230.371, 1105.061 232.931, 1105.440 234.681 C 1105.819 236.430, 1106.746 238.374, 1107.500 239 C 1108.254 239.626, 1109.170 241.570, 1109.534 243.319 C 1109.898 245.069, 1110.934 247.625, 1111.836 249 C 1112.738 250.375, 1113.944 252.400, 1114.517 253.500 C 1115.500 255.387, 1116.573 255.500, 1133.530 255.500 L 1151.500 255.500 1151.411 251.213 C 1151.357 248.630, 1150.532 245.849, 1149.333 244.213 C 1148.240 242.721, 1146.833 240.016, 1146.208 238.203 C 1145.583 236.390, 1144.155 233.742, 1143.036 232.318 C 1141.916 230.895, 1141 229.124, 1141 228.382 C 1141 227.207, 1137.944 220.754, 1128.389 201.749 C 1127.075 199.137, 1126 196.347, 1126 195.551 C 1126 194.755, 1124.875 192.889, 1123.500 191.405 C 1121.943 189.725, 1121.003 187.537, 1121.008 185.604 C 1121.016 182.524, 1122.580 180.451, 1134.712 167.437 C 1137.887 164.032, 1146.717 154.189, 1154.329 145.571 C 1155.335 144.432, 1159.610 139.888, 1163.829 135.473 C 1179.127 119.464, 1180.861 116.928, 1177.418 115.607 C 1176.548 115.273, 1168.110 115, 1158.667 115 L 1141.498 115 1135.999 120.874 C 1132.975 124.104, 1128.250 129.352, 1125.500 132.536 C 1122.750 135.720, 1118.250 140.921, 1115.500 144.093 C 1112.750 147.266, 1108.475 152.404, 1106 155.512 C 1100.436 162.499, 1093.438 170, 1092.486 170 C 1091.651 170, 1092.195 166.639, 1094.267 159 C 1095.088 155.975, 1096.054 150.051, 1096.414 145.836 C 1096.773 141.620, 1097.738 136.828, 1098.557 135.187 C 1099.440 133.417, 1100.138 128.805, 1100.273 123.851 L 1100.500 115.500 1084.927 115.226 C 1070.616 114.973, 1069.213 115.107, 1067.608 116.880 M 1281.500 124.217 C 1268.885 125.978, 1263.440 127.221, 1261.766 128.724 C 1260.812 129.581, 1259.739 132.484, 1259.382 135.175 C 1259.025 137.867, 1257.860 141.179, 1256.794 142.535 C 1255.165 144.606, 1254 145, 1249.504 145 C 1245.262 145, 1243.541 145.516, 1241.196 147.488 C 1237.260 150.801, 1235 155.818, 1235 161.246 C 1235 166.807, 1236.786 168.553, 1244.041 170.083 C 1250.626 171.471, 1252.329 172.682, 1251.559 175.430 C 1251.240 176.569, 1250.554 181.775, 1250.035 187 C 1249.516 192.225, 1248.391 198.484, 1247.534 200.908 C 1246.169 204.772, 1243.843 219.617, 1242.304 234.279 C 1242.029 236.907, 1242.257 239.607, 1242.812 240.279 C 1243.367 240.951, 1244.124 243.124, 1244.495 245.109 C 1244.979 247.699, 1246.408 249.753, 1249.554 252.383 C 1253.383 255.584, 1254.935 256.173, 1261.798 257.034 C 1266.926 257.677, 1272.925 257.681, 1279.065 257.046 C 1288.915 256.027, 1290.917 254.945, 1291.073 250.559 C 1291.113 249.426, 1291.494 246.048, 1291.919 243.051 C 1292.610 238.184, 1292.456 237.365, 1290.475 235.384 C 1288.817 233.726, 1287.077 233.167, 1283.582 233.167 C 1276.550 233.167, 1275.652 231.954, 1276.453 223.538 C 1276.821 219.667, 1277.780 214.250, 1278.583 211.500 C 1279.387 208.750, 1280.515 202.450, 1281.090 197.500 C 1281.666 192.550, 1283.127 184.675, 1284.338 180 L 1286.541 171.500 1294.725 171 C 1299.226 170.725, 1303.422 169.984, 1304.051 169.353 C 1304.679 168.723, 1305.829 164.545, 1306.605 160.070 C 1307.852 152.885, 1307.839 151.589, 1306.490 148.981 C 1304.872 145.852, 1303.218 145.187, 1296 144.764 L 1291.500 144.500 1291.500 135.140 C 1291.500 123.695, 1290.791 122.921, 1281.500 124.217 M 522.301 142.169 C 521.708 142.901, 520.895 146.875, 520.495 151 C 520.095 155.125, 519.197 159.625, 518.500 161 C 517.804 162.375, 516.920 166.244, 516.536 169.598 C 515.557 178.164, 516.305 178.727, 528.685 178.729 C 536.355 178.731, 539.262 178.323, 541.985 176.866 C 543.902 175.839, 545.966 175, 546.571 175 C 547.177 175, 549.336 173.146, 551.371 170.880 L 555.070 166.760 554.785 157.277 L 554.500 147.794 550.156 144.647 C 545.992 141.631, 545.345 141.486, 534.596 141.169 C 526.143 140.919, 523.114 141.165, 522.301 142.169 M 632.500 145.912 C 630.850 146.368, 628.150 147.472, 626.500 148.365 C 624.850 149.257, 622.872 149.990, 622.104 149.994 C 620.254 150.002, 611.275 156.073, 607.500 159.868 C 601.259 166.142, 600 167.598, 600 168.543 C 600 169.078, 598.918 171.549, 597.595 174.034 C 596.272 176.519, 594.865 180.790, 594.469 183.526 C 594.072 186.262, 593.278 189.089, 592.703 189.808 C 592.128 190.528, 590.874 197.503, 589.915 205.308 C 587.672 223.578, 588.534 233.173, 593.222 242.117 C 594.981 245.473, 598.013 249.407, 599.960 250.859 C 601.907 252.312, 604.077 254.045, 604.782 254.711 C 609.154 258.839, 635.020 258.007, 639.912 253.580 C 640.858 252.724, 642.986 251.753, 644.642 251.422 C 647.132 250.924, 647.945 251.267, 649.349 253.410 C 651.017 255.956, 651.249 256, 662.901 256 C 675.698 256, 676.369 255.743, 677.257 250.500 C 677.536 248.850, 678.466 244.575, 679.323 241 C 680.180 237.425, 681.301 231.125, 681.814 227 C 682.327 222.875, 683.452 216.125, 684.314 212 C 685.176 207.875, 686.392 200.900, 687.017 196.500 C 687.641 192.100, 688.774 185.800, 689.533 182.500 C 690.293 179.200, 691.399 173.125, 691.991 169 C 692.583 164.875, 693.326 159.790, 693.643 157.700 C 694.380 152.841, 692.307 150.392, 686.661 149.455 C 684.372 149.074, 681.150 148.059, 679.500 147.199 C 677.122 145.958, 672.253 145.577, 656 145.358 C 644.725 145.207, 634.150 145.456, 632.500 145.912 M 736.500 146.027 C 733.750 146.437, 729.700 147.478, 727.500 148.342 C 725.300 149.206, 722.093 149.932, 720.372 149.956 C 718.652 149.980, 716.832 150.563, 716.327 151.250 C 713.774 154.727, 711.031 164.614, 710.016 174 C 709.391 179.775, 708.052 187.425, 707.040 191 C 706.028 194.575, 704.965 200.875, 704.677 205 C 704.389 209.125, 703.490 214.075, 702.680 216 C 701.871 217.925, 700.702 224.225, 700.083 230 C 699.464 235.775, 698.068 243.353, 696.979 246.839 C 695.891 250.326, 695 255.561, 695 258.474 C 695 261.387, 694.372 265.960, 693.604 268.635 C 689.609 282.560, 689.036 288.955, 691.593 291.078 C 692.712 292.006, 697.031 292.440, 706.088 292.535 C 716.873 292.647, 719.232 292.401, 720.468 291.035 C 723.037 288.196, 724.881 281.331, 726.052 270.241 C 726.676 264.333, 727.587 259.080, 728.077 258.567 C 728.566 258.053, 734.712 257.555, 741.733 257.458 C 757.225 257.246, 764.687 256.302, 768 254.135 C 769.375 253.236, 771.685 252.050, 773.133 251.500 C 779.980 248.899, 789.595 239.203, 791.478 233 C 791.895 231.625, 792.899 229.745, 793.708 228.822 C 794.518 227.898, 795.596 225.198, 796.105 222.822 C 796.613 220.445, 797.675 216.925, 798.466 215 C 799.256 213.075, 800.613 204.639, 801.481 196.253 C 802.749 184.010, 802.833 179.676, 801.910 174.253 C 799.902 162.464, 793.410 154.300, 781.395 148.456 L 774.290 145 757.895 145.141 C 748.878 145.218, 739.250 145.617, 736.500 146.027 M 857.500 146.808 C 855.300 147.831, 852.180 148.996, 850.567 149.399 C 848.954 149.801, 846.381 151.113, 844.850 152.315 C 843.318 153.517, 840.317 155.850, 838.180 157.500 C 836.043 159.150, 833.216 161.994, 831.898 163.819 C 830.579 165.644, 828.557 168.344, 827.405 169.819 C 826.252 171.294, 825.010 174.045, 824.643 175.934 C 824.276 177.823, 823.279 180.139, 822.427 181.080 C 821.576 182.021, 820.446 185.876, 819.917 189.646 C 819.388 193.416, 818.177 198.525, 817.227 201 C 815.910 204.433, 815.500 208.588, 815.500 218.523 C 815.500 230.513, 815.678 231.772, 817.750 234.408 C 818.987 235.982, 820 238.025, 820 238.948 C 820 241.638, 828.011 249.490, 834.181 252.848 C 843.183 257.746, 853.355 258.531, 881 256.458 C 891.172 255.695, 899.609 252.947, 900.393 250.141 C 900.645 249.238, 901.144 246.925, 901.502 245 C 901.860 243.075, 902.876 239.530, 903.761 237.122 C 906.336 230.113, 905.919 230, 877.500 230 C 851.954 230, 851.958 230.001, 848.646 225.027 C 846.693 222.093, 846.425 213.490, 848.250 212.309 C 848.938 211.864, 863.225 211.275, 880 211 L 910.500 210.500 912.856 205.751 C 914.816 201.799, 915.301 198.923, 915.746 188.608 C 916.225 177.526, 916.065 175.752, 914.233 171.857 C 913.107 169.461, 911.854 166.375, 911.450 165 C 910.219 160.814, 902.176 152.295, 896.173 148.819 C 890.563 145.571, 890.339 145.531, 876 145.242 C 863.563 144.991, 860.931 145.214, 857.500 146.808 M 945 145.679 C 943.625 145.949, 942.155 146.499, 941.734 146.901 C 940.125 148.437, 935.943 165.919, 934.960 175.221 C 934.394 180.567, 933.259 186.848, 932.437 189.179 C 931.615 191.509, 930.518 197.504, 930 202.500 C 929.482 207.496, 928.414 213.411, 927.626 215.643 C 926.838 217.875, 925.657 224.786, 925 231 C 924.343 237.214, 923.175 244.088, 922.403 246.275 C 919.216 255.308, 920.611 256.151, 938.133 255.779 C 950.883 255.509, 951.346 255.422, 953.169 252.978 C 954.458 251.250, 955.365 247.472, 956.050 240.978 C 956.600 235.765, 957.762 229.559, 958.632 227.187 C 959.502 224.815, 960.559 218.965, 960.981 214.187 C 961.404 209.409, 962.318 204.150, 963.013 202.500 C 963.708 200.850, 964.865 194.885, 965.583 189.244 C 966.301 183.604, 967.143 178.578, 967.453 178.075 C 967.764 177.573, 970.286 176.675, 973.059 176.081 C 975.832 175.486, 979.452 174.301, 981.104 173.446 C 982.756 172.592, 984.871 171.969, 985.804 172.061 C 989.791 172.458, 993.734 171.914, 995.293 170.750 C 997.542 169.072, 1001.329 153.569, 1000.531 149.311 C 999.779 145.304, 997.468 144.516, 988.664 145.263 C 984.593 145.609, 980.914 146.686, 977.829 148.435 L 973.158 151.083 970.571 148.291 C 968.088 145.611, 967.578 145.494, 957.743 145.344 C 952.109 145.258, 946.375 145.409, 945 145.679 M 1193.869 146.465 C 1190.757 148.209, 1190.272 149.282, 1189.451 156.238 C 1189.109 159.132, 1188.008 164.200, 1187.003 167.500 C 1185.999 170.800, 1184.927 176.875, 1184.620 181 C 1184.313 185.125, 1183.372 190.750, 1182.529 193.500 C 1181.687 196.250, 1180.518 202.713, 1179.931 207.862 C 1179.345 213.012, 1178.388 218.412, 1177.805 219.862 C 1177.222 221.313, 1175.923 228.350, 1174.918 235.500 C 1173.913 242.650, 1172.783 249.785, 1172.408 251.356 C 1171.941 253.311, 1172.164 254.490, 1173.113 255.091 C 1175.411 256.547, 1201.330 256.211, 1203.398 254.698 C 1204.703 253.744, 1205.424 251.142, 1206.102 244.948 C 1206.611 240.302, 1207.713 234.475, 1208.550 232 C 1209.388 229.525, 1210.492 223.159, 1211.003 217.854 C 1211.514 212.549, 1212.613 206.699, 1213.444 204.854 C 1214.275 203.009, 1215.618 195.875, 1216.429 189 C 1217.239 182.125, 1218.541 174.250, 1219.321 171.500 C 1220.101 168.750, 1221.049 162.675, 1221.428 158 C 1222.419 145.785, 1222.187 145.568, 1207.833 145.245 C 1199.323 145.054, 1195.845 145.358, 1193.869 146.465 M 1355 145.919 C 1353.625 146.295, 1350.827 147.366, 1348.782 148.301 C 1346.737 149.235, 1344.401 150, 1343.591 150 C 1342.781 150, 1341.829 150.468, 1341.475 151.041 C 1341.121 151.613, 1339.182 153.160, 1337.166 154.479 C 1331.661 158.080, 1327.622 162.029, 1324.704 166.666 C 1323.261 168.957, 1321.613 171.121, 1321.041 171.475 C 1320.468 171.829, 1320 172.896, 1320 173.848 C 1320 174.799, 1319.068 177.360, 1317.930 179.539 C 1316.791 181.717, 1315.431 186.425, 1314.907 190 C 1314.383 193.575, 1313.177 198.525, 1312.227 201 C 1310.910 204.431, 1310.500 208.587, 1310.500 218.500 C 1310.500 231.377, 1310.532 231.557, 1313.842 237.500 C 1317.895 244.775, 1322.207 249.450, 1326.381 251.095 C 1328.097 251.771, 1330.400 253.110, 1331.500 254.072 C 1335.669 257.716, 1353.505 258.546, 1378 256.238 C 1387.101 255.380, 1392.442 253.645, 1394.692 250.816 C 1395.268 250.092, 1396.047 247.700, 1396.424 245.500 C 1396.801 243.300, 1397.843 239.530, 1398.739 237.122 C 1401.356 230.095, 1400.998 230, 1371.823 230 L 1347.028 230 1344.378 225.995 C 1341.524 221.682, 1340.769 214.832, 1342.912 212.686 C 1343.750 211.847, 1353.213 211.340, 1375.298 210.951 C 1392.459 210.649, 1406.575 210.312, 1406.667 210.201 C 1406.759 210.091, 1407.659 207.863, 1408.667 205.250 C 1411.195 198.699, 1411.344 174.712, 1408.881 170.946 C 1407.991 169.584, 1406.963 167.110, 1406.598 165.447 C 1405.885 162.202, 1396.465 151.631, 1392.748 149.905 C 1391.512 149.331, 1388.925 147.993, 1387 146.932 C 1384.010 145.284, 1381.606 145.020, 1370.500 145.120 C 1363.350 145.184, 1356.375 145.544, 1355 145.919 M 642 171.872 C 638.359 172.797, 631 176.884, 631 177.981 C 631 178.499, 630.139 179.727, 629.086 180.711 C 627.932 181.790, 626.713 185.081, 626.015 189 C 625.379 192.575, 623.990 198.847, 622.929 202.938 C 620.260 213.231, 620.294 225.294, 623 228 C 626.147 231.147, 635.889 230.786, 642.986 227.260 C 646.019 225.753, 648.800 224.100, 649.166 223.587 C 649.532 223.074, 650.148 219.470, 650.534 215.577 C 650.920 211.685, 651.827 206.925, 652.550 205 C 653.273 203.075, 654.365 196.775, 654.976 191 C 655.588 185.225, 656.333 179.093, 656.632 177.374 C 657.151 174.391, 656.958 174.174, 652.410 172.624 C 647.419 170.924, 646.105 170.829, 642 171.872 M 865.451 172.265 C 858.268 176.597, 856.886 177.726, 856.382 179.676 C 856.073 180.873, 854.961 182.631, 853.910 183.581 C 852.860 184.532, 852 186.376, 852 187.680 L 852 190.050 868.250 189.775 L 884.500 189.500 884.797 183.834 C 885.065 178.738, 884.814 177.901, 882.297 175.507 C 880.759 174.042, 878.458 172.429, 877.185 171.922 C 873.928 170.625, 867.878 170.802, 865.451 172.265 M 1358 173.994 C 1352.556 177.572, 1352.587 177.541, 1349.430 182.369 C 1344.916 189.270, 1345.370 189.500, 1363.514 189.500 L 1379.500 189.500 1379.800 183.749 C 1380.071 178.546, 1379.833 177.748, 1377.300 175.388 C 1371.520 170.001, 1364.812 169.517, 1358 173.994 M 744.540 174.234 C 742.249 176.225, 741.812 177.654, 740.939 186 C 740.392 191.225, 739.235 197.750, 738.367 200.500 C 737.499 203.250, 736.446 209.100, 736.025 213.500 C 735.605 217.900, 734.686 222.724, 733.984 224.220 C 732.936 226.450, 732.947 227.232, 734.045 228.554 C 735.159 229.896, 737.186 230.111, 746.122 229.833 L 756.860 229.500 760.389 225.500 C 762.396 223.225, 764.159 219.991, 764.478 218 C 764.786 216.075, 765.969 211.125, 767.107 207 C 769.248 199.238, 770.729 183.042, 769.681 178.864 C 768.691 174.921, 763.493 172.615, 754.824 172.272 C 748.036 172.003, 746.847 172.230, 744.540 174.234 M 135.559 273.532 C 134.491 274.339, 132.016 275.006, 130.059 275.014 C 124.259 275.036, 122.030 276.022, 121.346 278.869 C 120.999 280.316, 119.654 283.521, 118.357 285.992 C 117.061 288.463, 116 291.299, 116 292.294 C 116 293.289, 115.123 295.768, 114.051 297.802 C 112.394 300.946, 110.635 305.772, 108.901 311.925 C 108.033 315.007, 115.825 317.760, 128.672 318.910 C 143.719 320.257, 158.540 320.316, 160.929 319.038 C 163.492 317.666, 164.752 313.637, 165.408 304.720 C 165.722 300.441, 166.698 295.551, 167.576 293.854 C 168.454 292.156, 169.419 287.505, 169.720 283.518 C 170.210 277.038, 170.042 276.042, 168.134 274.134 C 166.152 272.152, 164.988 272.002, 151.750 272.032 C 140.807 272.056, 137.050 272.404, 135.559 273.532 M 15.352 311.927 C 13.070 312.963, 8.683 314.375, 5.602 315.065 L 0 316.318 0 322.592 C 0 327.985, 0.280 328.954, 1.998 329.499 C 3.096 329.848, 4.278 331.341, 4.624 332.817 C 4.969 334.292, 6.584 337.873, 8.212 340.773 C 11.868 347.283, 16.376 349.714, 20.755 347.535 C 22.265 346.784, 24.625 345.667, 26 345.054 C 27.375 344.440, 29.625 343.297, 31 342.513 C 32.375 341.728, 34.729 340.836, 36.232 340.529 C 42.071 339.337, 43.523 330.143, 38.728 324.728 C 37.502 323.345, 34.925 319.941, 33 317.165 C 27.963 309.900, 23.036 308.438, 15.352 311.927 M 69.100 318.122 C 67.952 319.430, 64.437 323.343, 61.289 326.818 C 55.744 332.940, 55.611 333.216, 57.033 335.724 C 57.874 337.207, 60.179 338.891, 62.434 339.667 C 64.597 340.413, 67.072 341.635, 67.934 342.384 C 70.518 344.630, 79.195 346.257, 82.299 345.076 C 83.785 344.512, 85 343.654, 85 343.171 C 85 342.687, 86.125 341.078, 87.500 339.595 C 88.875 338.111, 90 336.387, 90 335.763 C 90 335.139, 90.857 333.700, 91.904 332.564 C 92.951 331.429, 94.500 328.820, 95.346 326.766 C 96.818 323.192, 96.792 322.967, 94.720 321.516 C 93.529 320.682, 92.093 319.997, 91.527 319.994 C 90.962 319.990, 89.150 319.263, 87.500 318.378 C 85.850 317.493, 81.505 316.538, 77.844 316.257 C 71.755 315.788, 71.009 315.947, 69.100 318.122" stroke="none" fill="#001E87" fill-rule="evenodd"/>
</svg>